<?xml version="1.0" encoding="UTF-8"?>
<svg id="_レイヤー_2" data-name="レイヤー 2" xmlns="http://www.w3.org/2000/svg" viewBox="0 0 227.37 48.82">
  <defs>
    <style>
      .cls-1 {
        fill: #2d3748;
      }
    </style>
  </defs>
  <g id="_レイヤー_1-2" data-name="レイヤー 1">
    <g>
      <path class="cls-1" d="M11.98,38.74l-2.47-11.26L7.37,5.83H0V.38h11.59l2.71,14.98.96,17.93h1.9l.89-17.93L20.81.38h11.57v5.45h-7.37l-2.09,21.6-2.69,11.3h-8.26ZM0,38.78V7.92h5.45l.89,19.32v11.54H0ZM26.02,38.78v-11.54l.91-19.32h5.45v30.86h-6.36Z"/>
      <path class="cls-1" d="M41.4,38.78l-5.42-28.8h6.38l1.85,13.27,1.1,10.97h6.07l-.77,4.56h-9.22ZM40.2,48.82c-.54,0-1.13-.03-1.76-.1-.63-.06-1.24-.14-1.81-.22v-4.61c.45.03,1.03.06,1.74.08.71.02,1.32.04,1.81.04,1.14,0,1.99-.12,2.57-.37.58-.25.92-.72,1.03-1.43l.17-1.01h6.24l-.17,1.01c-.27,1.47-.75,2.7-1.44,3.67-.69.98-1.7,1.71-3.05,2.2-1.34.49-3.12.73-5.33.73ZM46.87,31.78l.65-8.52,1.44-13.27h6.38l-3.58,21.79h-4.9Z"/>
      <path class="cls-1" d="M78.55,39.17v-5.21c.59-.16,1.04-.44,1.36-.83s.5-.92.56-1.57c.06-.59.1-1.2.12-1.81.02-.62.01-1.23-.01-1.85s-.06-1.22-.11-1.81c-.06-.85-.34-1.56-.83-2.15-.49-.58-1.16-.98-2.03-1.19l-3.86-.89c-1.57-.37-2.8-.93-3.71-1.68-.9-.75-1.56-1.71-1.96-2.88s-.62-2.55-.67-4.15c-.02-.8-.02-1.56-.02-2.29s0-1.47.02-2.22c.11-2.86.8-4.98,2.08-6.34s3.31-2.13,6.11-2.3v5.18c-.62.16-1.1.44-1.43.83-.33.39-.52.91-.59,1.55-.08.94-.12,1.88-.12,2.8s.04,1.85.12,2.8c.06.86.28,1.58.65,2.16.37.58.97.95,1.8,1.13l3.46.74c1.7.38,3.06.96,4.09,1.74,1.03.78,1.79,1.76,2.27,2.95.48,1.19.75,2.6.82,4.21.02.46.02.95.02,1.45s0,1-.01,1.5c0,.5-.03.98-.06,1.44-.11,2.88-.8,5-2.05,6.37-1.26,1.37-3.26,2.14-6.01,2.32ZM75.6,39.17c-2.74-.19-4.73-.97-5.99-2.33s-1.94-3.48-2.05-6.36c-.02-.62-.02-1.27-.02-1.94s.02-1.34.05-2.02c.03-.67.08-1.34.14-1.99h5.81c-.06,1.25-.1,2.47-.11,3.66,0,1.19.03,2.32.11,3.37.05.66.24,1.18.58,1.58.34.4.83.68,1.49.84v5.18ZM80.47,14.45c.05-1.2.08-2.37.1-3.5.02-1.14,0-2.26-.05-3.38-.02-.66-.19-1.18-.52-1.57-.33-.39-.82-.66-1.48-.8V0c2.72.19,4.7.96,5.93,2.32,1.23,1.35,1.9,3.46,2.02,6.32.03.78.04,1.7.02,2.76-.02,1.06-.05,2.07-.1,3.05h-5.93Z"/>
      <path class="cls-1" d="M90.77,38.78V9.98h6.17v28.8h-6.17ZM103.82,38.78v-22.27c-.02-.85-.25-1.47-.7-1.86s-1.12-.59-2.02-.59c-.21,0-.42.02-.62.05-.21.03-.42.08-.62.14v-3.46c.48-.42,1.02-.73,1.62-.94.6-.21,1.34-.31,2.22-.31,2.03,0,3.58.58,4.66,1.74,1.07,1.16,1.62,3.08,1.63,5.75v21.74h-6.17Z"/>
      <path class="cls-1" d="M114.53,5.33V.38h6.55v4.94h-6.55ZM114.72,38.78V9.98h6.17v28.8h-6.17Z"/>
      <path class="cls-1" d="M125.76,48.38V9.98h6.26v38.4h-6.26ZM134.93,34.61c.13.03.26.06.38.07.13.02.26.02.38.02.9,0,1.6-.2,2.1-.59s.78-1.01.83-1.86c.08-1.34.13-2.7.16-4.07.02-1.37.04-2.73.04-4.08s-.02-2.68-.05-3.97c-.03-1.3-.08-2.55-.14-3.77-.05-.77-.27-1.34-.67-1.73-.4-.38-1.03-.58-1.9-.58-.38,0-.76.05-1.13.14v-3.67c.45-.34.95-.58,1.51-.74.56-.16,1.25-.24,2.06-.24,1.98,0,3.52.58,4.6,1.73s1.68,3.07,1.79,5.76c.03.85.06,1.93.08,3.24.03,1.31.04,2.69.04,4.14s-.01,2.82-.04,4.12c-.02,1.3-.05,2.36-.08,3.19-.11,2.67-.76,4.59-1.96,5.75-1.19,1.16-2.78,1.74-4.76,1.74-1.27,0-2.34-.34-3.24-1.01v-3.6Z"/>
      <path class="cls-1" d="M149.18,48.38V9.98h6.26v38.4h-6.26ZM158.35,34.61c.13.03.26.06.38.07.13.02.26.02.38.02.9,0,1.6-.2,2.1-.59s.78-1.01.83-1.86c.08-1.34.13-2.7.16-4.07.02-1.37.04-2.73.04-4.08s-.02-2.68-.05-3.97-.08-2.55-.14-3.77c-.05-.77-.27-1.34-.67-1.73-.4-.38-1.03-.58-1.9-.58-.38,0-.76.05-1.13.14v-3.67c.45-.34.95-.58,1.51-.74.56-.16,1.25-.24,2.06-.24,1.98,0,3.52.58,4.6,1.73s1.68,3.07,1.79,5.76c.03.85.06,1.93.08,3.24.02,1.31.04,2.69.04,4.14s-.01,2.82-.04,4.12c-.02,1.3-.05,2.36-.08,3.19-.11,2.67-.76,4.59-1.96,5.75-1.19,1.16-2.78,1.74-4.76,1.74-1.26,0-2.34-.34-3.24-1.01v-3.6Z"/>
      <path class="cls-1" d="M172.15,31.37c-.03-.86-.06-1.92-.08-3.18-.02-1.26-.04-2.57-.04-3.94s.01-2.65.04-3.85c.02-1.2.05-2.18.08-2.93.18-2.61.87-4.53,2.08-5.76s3.09-1.94,5.65-2.11v4.78c-.51.14-.88.4-1.09.76-.22.36-.33.84-.35,1.43-.05,1.46-.08,2.82-.11,4.1-.02,1.28-.04,2.53-.04,3.76s.01,2.46.04,3.7c.02,1.24.06,2.56.11,3.95.02.64.14,1.14.36,1.51.22.37.58.63,1.08.79v4.8c-2.67-.18-4.59-.88-5.75-2.12-1.16-1.24-1.82-3.13-1.98-5.68ZM180.62,25.44v-4.27h3.58c.02-.67.02-1.32.02-1.96s0-1.18-.01-1.66c0-.47-.03-.8-.06-1-.02-.61-.13-1.08-.35-1.43s-.55-.59-1-.73v-4.8c2.56.18,4.42.87,5.58,2.08,1.16,1.21,1.8,3.06,1.93,5.56.02.38.03,1.04.04,1.96,0,.92,0,1.95,0,3.08,0,1.14-.04,2.19-.08,3.17h-9.65ZM182.81,39.17v-4.8c.45-.16.78-.42.98-.79.21-.37.33-.89.36-1.56.03-.48.05-1.05.06-1.72,0-.66-.01-1.45-.06-2.36h6.12c.03.3.06.82.07,1.56.02.74,0,1.36-.02,1.87-.13,2.58-.77,4.48-1.93,5.71-1.16,1.23-3.02,1.93-5.58,2.09Z"/>
      <path class="cls-1" d="M192.36,14.66v-4.68h2.74V1.82h6.26v30.19c0,1.04.24,1.73.73,2.08.49.34,1.36.52,2.63.52.45,0,.86,0,1.25-.02.38-.02.81-.03,1.27-.05v4.44c-.38.1-.78.16-1.19.19-.41.03-.86.05-1.36.05-3.46,0-5.92-.6-7.39-1.81-1.47-1.21-2.21-3.24-2.21-6.11V14.66h-2.74ZM203.61,14.66v-4.68h3.1v4.68h-3.1Z"/>
      <path class="cls-1" d="M219.79,39.17v-4.73c.61-.14,1.05-.41,1.33-.79.28-.38.43-.93.44-1.63v-2.04c-.02-.67-.16-1.22-.42-1.63-.26-.42-.76-.72-1.5-.91l-3.29-.86c-1.46-.38-2.68-.88-3.67-1.49-.99-.61-1.74-1.38-2.24-2.33-.5-.94-.76-2.12-.76-3.53-.02-.34-.02-.64-.02-.91s0-.54.02-.82c0-2.61.56-4.54,1.69-5.78,1.13-1.25,3.05-1.95,5.77-2.11v4.78c-.46.13-.8.37-1.01.72-.21.35-.32.84-.34,1.46-.02.14-.03.37-.05.67-.02.3-.02.79,0,1.46,0,.8.14,1.44.41,1.91.27.47.83.81,1.68,1.02l2.95.72c2.19.5,3.84,1.3,4.93,2.41,1.1,1.11,1.64,2.75,1.64,4.91v.92c0,.3,0,.61-.02.95-.02,2.53-.6,4.39-1.76,5.59-1.16,1.2-3.09,1.88-5.8,2.04ZM209.83,31.37c-.02-.7-.02-1.37-.01-2,0-.63.03-1.11.06-1.43h5.52c-.05,1.02-.07,1.85-.06,2.48,0,.63.02,1.18.04,1.64.03.66.17,1.16.41,1.52.24.36.6.62,1.08.78v4.8c-2.46-.18-4.22-.88-5.28-2.11-1.06-1.23-1.64-3.13-1.75-5.69ZM221.35,20.74c.02-.4.03-.87.04-1.4,0-.54,0-1.06,0-1.57,0-.51-.02-.91-.04-1.2-.03-.61-.14-1.08-.32-1.43-.18-.34-.49-.59-.92-.73v-4.8c2.43.18,4.18.87,5.24,2.08s1.65,3.07,1.76,5.58c.02.26.02.62.02,1.1s0,.95-.02,1.4c-.02.46-.03.78-.05.97h-5.71Z"/>
    </g>
  </g>
</svg>
